<?xml version="1.0" encoding="iso-8859-1"?>
<!-- Uploaded to: SVG Repo, www.svgrepo.com, Generator: SVG Repo Mixer Tools -->
<svg height="800px" width="800px" version="1.1" id="Layer_1" xmlns="http://www.w3.org/2000/svg" xmlns:xlink="http://www.w3.org/1999/xlink" 
	 viewBox="0 0 300.727 300.727" xml:space="preserve">
<g>
	<g id="exchange-item-retail-store_1_">
		<path style="fill:#F78B28;" d="M206.748,61.086v-42.29h-28.193v42.29c0,2.598-2.1,4.699-4.699,4.699h-2.754l21.549,21.549
			L214.2,65.785h-2.754C208.849,65.785,206.748,63.684,206.748,61.086z"/>
		<path style="fill:#3ADDBE;" d="M35.241,178.557h-1.602l15.619,105.437c1.02,6.86,7.015,12.034,13.946,12.034h179.599
			c6.795,0,12.626-4.849,13.857-11.526l19.622-105.945h-1.4H35.241z M98.675,258.437c0,7.772-6.325,14.096-14.097,14.096
			s-14.097-6.325-14.097-14.096v-46.988c0-7.772,6.325-14.097,14.097-14.097s14.097,6.325,14.097,14.097V258.437z M145.663,258.437
			c0,7.772-6.325,14.096-14.097,14.096s-14.096-6.325-14.096-14.096v-46.988c0-7.772,6.325-14.097,14.096-14.097
			c7.772,0,14.097,6.325,14.097,14.097V258.437z M192.652,258.437c0,7.772-6.325,14.096-14.096,14.096
			c-7.772,0-14.097-6.325-14.097-14.096v-46.988c0-7.772,6.325-14.097,14.097-14.097s14.096,6.325,14.096,14.097V258.437z
			 M239.64,258.437c0,7.772-6.325,14.096-14.096,14.096c-7.772,0-14.097-6.325-14.097-14.096v-46.988
			c0-7.772,6.325-14.097,14.097-14.097s14.096,6.325,14.096,14.097V258.437z"/>
		<path style="fill:#FFFFFF;" d="M84.579,206.75c-2.594,0-4.699,2.105-4.699,4.699v46.988c0,2.594,2.105,4.699,4.699,4.699
			s4.699-2.105,4.699-4.699v-46.988C89.277,208.855,87.172,206.75,84.579,206.75z"/>
		<path style="fill:#F8CF26;" d="M82.14,137.79c2.429,0.653,4.967,0.305,7.133-0.94c2.176-1.255,3.731-3.28,4.384-5.704
			c0.648-2.429,0.315-4.957-0.94-7.133L36.331,26.348c-1.739-3.007-4.906-4.694-8.157-4.694c-1.593,0-3.209,0.404-4.685,1.259
			c-2.176,1.255-3.726,3.28-4.379,5.704c-0.644,2.42-0.315,4.957,0.944,7.128L76.44,133.41
			C77.69,135.586,79.72,137.141,82.14,137.79z"/>
		<path style="fill:#FFFFFF;" d="M131.567,206.75c-2.594,0-4.699,2.105-4.699,4.699v46.988c0,2.594,2.105,4.699,4.699,4.699
			s4.699-2.105,4.699-4.699v-46.988C136.266,208.855,134.161,206.75,131.567,206.75z"/>
		<path style="fill:#F8CF26;" d="M274.881,126.87h-25.844v-1.25l-7.213,12.494c-2.509,4.346-6.56,7.457-11.413,8.754
			c-1.621,0.432-3.261,0.648-4.896,0.648c-3.252,0-6.47-0.855-9.365-2.523c-4.351-2.509-7.462-6.56-8.759-11.413
			c-0.597-2.223-0.728-4.487-0.507-6.71H103.242c0.216,2.223,0.085,4.487-0.507,6.71c-1.297,4.849-4.408,8.904-8.759,11.413
			c-2.894,1.668-6.113,2.523-9.365,2.523c-1.635,0-3.275-0.216-4.896-0.648c-4.849-1.297-8.904-4.408-11.413-8.754l-7.217-12.494
			v1.25H35.241c-11.658,0-21.145,9.487-21.145,21.145s9.487,21.145,21.145,21.145h239.641c11.658,0,21.145-9.487,21.145-21.145
			C296.026,136.357,286.539,126.87,274.881,126.87z"/>
		<path style="fill:#F8CF26;" d="M220.85,136.85c2.171,1.255,4.708,1.588,7.133,0.94c2.425-0.653,4.45-2.204,5.704-4.379
			l56.386-97.665c1.255-2.171,1.584-4.708,0.94-7.128c-0.653-2.425-2.204-4.45-4.379-5.704c-1.475-0.855-3.092-1.259-4.685-1.259
			c-3.252,0-6.414,1.682-8.152,4.694l-56.386,97.665c-1.259,2.176-1.588,4.704-0.94,7.133
			C217.119,133.57,218.674,135.595,220.85,136.85z"/>
		<path style="fill:#FFFFFF;" d="M178.555,206.75c-2.594,0-4.699,2.105-4.699,4.699v46.988c0,2.594,2.105,4.699,4.699,4.699
			c2.594,0,4.699-2.105,4.699-4.699v-46.988C183.254,208.855,181.149,206.75,178.555,206.75z"/>
		<path style="fill:#FFFFFF;" d="M225.544,206.75c-2.594,0-4.699,2.105-4.699,4.699v46.988c0,2.594,2.105,4.699,4.699,4.699
			s4.699-2.105,4.699-4.699v-46.988C230.242,208.855,228.137,206.75,225.544,206.75z"/>
		<path style="fill:#F78B28;" d="M103.374,42.291v42.29h28.193v-42.29c0-2.598,2.1-4.699,4.699-4.699h2.754l-21.549-21.549
			L95.922,37.592h2.754C101.274,37.592,103.374,39.692,103.374,42.291z"/>
		<path d="M300.725,143.316c0-16.841-13.702-30.542-30.542-30.542h-21.14l44.47-77.028c2.509-4.346,3.176-9.412,1.875-14.261
			c-1.302-4.849-4.408-8.904-8.754-11.413c-8.975-5.169-20.487-2.091-25.679,6.879l-55.319,95.823H95.09L39.771,16.95
			c-5.183-8.97-16.7-12.043-25.679-6.874c-4.346,2.509-7.457,6.56-8.754,11.409S4.704,31.4,7.213,35.746l44.47,77.028h-21.14
			c-16.841,0-30.542,13.702-30.542,30.542c0,12.795,7.918,23.762,19.11,28.301l16.155,109.06c1.696,11.428,11.686,20.05,23.24,20.05
			h179.599c11.324,0,21.041-8.082,23.099-19.218l20.345-109.869C292.775,167.12,300.725,156.139,300.725,143.316z M212.711,119.319
			l56.386-97.665c1.739-3.012,4.901-4.694,8.152-4.694c1.593,0,3.209,0.404,4.685,1.259c2.176,1.255,3.726,3.28,4.379,5.704
			c0.648,2.425,0.315,4.957-0.94,7.133l-56.386,97.665c-1.255,2.176-3.28,3.726-5.704,4.379c-2.425,0.648-4.962,0.31-7.133-0.94
			c-2.176-1.255-3.731-3.28-4.384-5.704C211.123,124.022,211.452,121.49,212.711,119.319z M14.411,23.918
			c0.653-2.425,2.204-4.45,4.379-5.704c1.475-0.855,3.092-1.259,4.685-1.259c3.252,0,6.419,1.682,8.152,4.694l56.386,97.665
			c1.259,2.176,1.588,4.704,0.94,7.133c-0.653,2.425-2.208,4.45-4.384,5.704c-2.166,1.25-4.704,1.593-7.133,0.94
			c-2.425-0.653-4.45-2.204-5.704-4.379L15.346,31.046C14.096,28.876,13.767,26.338,14.411,23.918z M271.583,173.858
			l-19.622,105.945c-1.236,6.677-7.062,11.526-13.857,11.526H58.505c-6.935,0-12.926-5.173-13.946-12.034L28.94,173.858h1.602
			h239.641H271.583z M270.183,164.46H30.542c-11.658,0-21.145-9.487-21.145-21.145s9.487-21.145,21.145-21.145h25.844v-1.25
			l7.213,12.494c2.509,4.346,6.56,7.457,11.413,8.754c1.621,0.432,3.261,0.648,4.896,0.648c3.252,0,6.47-0.855,9.365-2.523
			c4.351-2.509,7.462-6.56,8.759-11.413c0.597-2.223,0.728-4.487,0.507-6.71h103.642c-0.216,2.223-0.085,4.487,0.507,6.71
			c1.297,4.849,4.408,8.904,8.759,11.413c2.894,1.668,6.113,2.523,9.365,2.523c1.635,0,3.275-0.216,4.896-0.648
			c4.849-1.297,8.904-4.408,11.413-8.754l7.217-12.494v1.25h25.844c11.658,0,21.145,9.487,21.145,21.145
			S281.84,164.46,270.183,164.46z"/>
		<path d="M79.88,267.835c7.772,0,14.097-6.325,14.097-14.097V206.75c0-7.772-6.325-14.097-14.097-14.097
			s-14.097,6.325-14.097,14.097v46.988C65.783,261.51,72.108,267.835,79.88,267.835z M75.181,206.75
			c0-2.594,2.105-4.699,4.699-4.699s4.699,2.105,4.699,4.699v46.988c0,2.594-2.105,4.699-4.699,4.699s-4.699-2.105-4.699-4.699
			V206.75z"/>
		<path d="M126.868,267.835c7.772,0,14.097-6.325,14.097-14.097V206.75c0-7.772-6.325-14.097-14.097-14.097
			s-14.097,6.325-14.097,14.097v46.988C112.772,261.51,119.096,267.835,126.868,267.835z M122.169,206.75
			c0-2.594,2.105-4.699,4.699-4.699c2.594,0,4.699,2.105,4.699,4.699v46.988c0,2.594-2.105,4.699-4.699,4.699
			c-2.594,0-4.699-2.105-4.699-4.699V206.75z"/>
		<path d="M173.856,267.835c7.772,0,14.096-6.325,14.096-14.097V206.75c0-7.772-6.325-14.097-14.096-14.097
			s-14.097,6.325-14.097,14.097v46.988C159.76,261.51,166.085,267.835,173.856,267.835z M169.158,206.75
			c0-2.594,2.105-4.699,4.699-4.699s4.699,2.105,4.699,4.699v46.988c0,2.594-2.105,4.699-4.699,4.699s-4.699-2.105-4.699-4.699
			V206.75z"/>
		<path d="M220.845,267.835c7.772,0,14.096-6.325,14.096-14.097V206.75c0-7.772-6.325-14.097-14.096-14.097
			s-14.097,6.325-14.097,14.097v46.988C206.748,261.51,213.073,267.835,220.845,267.835z M216.146,206.75
			c0-2.594,2.105-4.699,4.699-4.699s4.699,2.105,4.699,4.699v46.988c0,2.594-2.105,4.699-4.699,4.699s-4.699-2.105-4.699-4.699
			V206.75z"/>
		<path d="M79.88,42.291h9.398v42.29c0,2.598,2.1,4.699,4.699,4.699h37.591c2.598,0,4.699-2.1,4.699-4.699v-42.29h9.398
			c1.898,0,3.618-1.142,4.342-2.899c0.728-1.757,0.324-3.778-1.02-5.122L116.094,1.378c-1.837-1.837-4.807-1.837-6.644,0
			L76.558,34.27c-1.344,1.344-1.748,3.364-1.02,5.122C76.262,41.149,77.981,42.291,79.88,42.291z M112.772,11.344l21.549,21.549
			h-2.754c-2.598,0-4.699,2.1-4.699,4.699v42.29H98.675v-42.29c0-2.598-2.1-4.699-4.699-4.699h-2.754L112.772,11.344z"/>
		<path d="M184.631,92.601c0.916,0.916,2.119,1.377,3.322,1.377s2.406-0.46,3.322-1.377l32.892-32.892
			c1.344-1.344,1.748-3.364,1.02-5.122c-0.724-1.757-2.443-2.899-4.342-2.899h-9.398V9.399c0-2.598-2.1-4.699-4.699-4.699h-37.591
			c-2.598,0-4.699,2.1-4.699,4.699v42.29h-9.398c-1.898,0-3.618,1.142-4.342,2.899c-0.728,1.757-0.324,3.778,1.02,5.122
			L184.631,92.601z M169.158,61.086c2.598,0,4.699-2.1,4.699-4.699v-42.29h28.193v42.29c0,2.598,2.1,4.699,4.699,4.699h2.754
			l-21.549,21.549l-21.549-21.549C166.405,61.086,169.158,61.086,169.158,61.086z"/>
	</g>
	<g id="Layer_1_8_">
	</g>
</g>
</svg>